# xmcd
#
# Track frame offsets:
#	150
#	20947
#	45392
#	67945
#	85985
#	103115
#	123880
#	144072
#	163290
#	185632
#
# Disc length: 2836 seconds
#
# Revision: 12
# Processed by: cddbd v1.5.2PL0 Copyright (c) Steve Scherf et al.
# Submitted via: EasyCDDAExtractor 15.3.0.1
#
DISCID=840b120a
DTITLE=Whitney Houston - Whitney Houston (Japan Edition)
DYEAR=1985
DGENRE=Pop
TTITLE0=You Give Good Love
TTITLE1=Thinking About You
TTITLE2=Someone For Me
TTITLE3=Saving All My Love For You
TTITLE4=Nobody Loves Me Like You Do
TTITLE5=How Will I Know
TTITLE6=All At Once
TTITLE7=Take Good Care Of My Heart
TTITLE8=Greatest Love Of All
TTITLE9=Hold Me
EXTD=YEAR: 1985
EXTT0=
EXTT1=
EXTT2=
EXTT3=
EXTT4=
EXTT5=
EXTT6=
EXTT7=
EXTT8=
EXTT9=
PLAYORDER=
